<!--
  ~ Copyright 2026 NWChemEx-Project
  ~
  ~ Licensed under the Apache License, Version 2.0 (the "License");
  ~ you may not use this file except in compliance with the License.
  ~ You may obtain a copy of the License at
  ~
  ~ http://www.apache.org/licenses/LICENSE-2.0
  ~
  ~ Unless required by applicable law or agreed to in writing, software
  ~ distributed under the License is distributed on an "AS IS" BASIS,
  ~ WITHOUT WARRANTIES OR CONDITIONS OF ANY KIND, either express or implied.
  ~ See the License for the specific language governing permissions and
  ~ limitations under the License.
-->

<svg viewBox="0 0 1280 320" xmlns="http://www.w3.org/2000/svg" width="1280" height="320" xmlns:c2pa="http://c2pa.org/manifest"><metadata><c2pa:manifest>AAAWgmp1bWIAAAAeanVtZGMycGEAEQAQgAAAqgA4m3EDYzJwYQAAABZcanVtYgAAAEdqdW1kYzJtYQARABCAAACqADibcQN1cm46YzJwYTo2MzU4MDRhZS0yMWIwLTQ4MDQtOGMyNS0xMjgzMjA5ZjdmMDAAAAADl2p1bWIAAAApanVtZGMyYXMAEQAQgAAAqgA4m3EDYzJwYS5hc3NlcnRpb25zAAAAALxqdW1iAAAARGp1bWRjYm9yABEAEIAAAKoAOJtxE2MycGEuaW5ncmVkaWVudC52MwAAAAAYYzJzaCk2MoBU0D27fYVjsGL08EEAAABwY2JvcqNpZGM6Zm9ybWF0bWltYWdlL3N2Zyt4bWxqaW5zdGFuY2VJRHgseG1wOmlpZDpmZDAzM2Q0OS05MjVhLTRjM2EtYTBlZi1iY2ZjMmExNDEzMTlscmVsYXRpb25zaGlwaHBhcmVudE9mAAAB4mp1bWIAAABBanVtZGNib3IAEQAQgAAAqgA4m3ETYzJwYS5hY3Rpb25zLnYyAAAAABhjMnNoiIU5GnC18G3/TTsoWy+H9AAAAZljYm9yomdhY3Rpb25zgqJmYWN0aW9ua2MycGEub3BlbmVkanBhcmFtZXRlcnOha2luZ3JlZGllbnRzgaJjdXJseC1zZWxmI2p1bWJmPWMycGEuYXNzZXJ0aW9ucy9jMnBhLmluZ3JlZGllbnQudjNkaGFzaFgglaqON8KY5ZDF3flwRPriXmdz4L8F/XSfsCUMJLpOePGkZmFjdGlvbngdY29tLmFudGhyb3BpYy5jbGF1ZGUucHJvdmlkZWRqcGFyYW1ldGVyc6F4H2NvbS5hbnRocm9waWMub3JpZ2luLWNvbmZpZGVuY2VndW5rbm93bmtkZXNjcmlwdGlvbnhmQ2xhdWRlIHByb3ZpZGVkIHRoaXMgZmlsZSBhdCB0aGUgcmVxdWVzdCBvZiBhIHVzZXIgYW5kIG1heSBoYXZlIGNyZWF0ZWQgb3IgbW9kaWZpZWQgdGhlIGZpbGUgY29udGVudHMubXNvZnR3YXJlQWdlbnShZG5hbWVmQ2xhdWRlcmFsbEFjdGlvbnNJbmNsdWRlZPUAAADIanVtYgAAAEBqdW1kY2JvcgARABCAAACqADibcRNjMnBhLmhhc2guZGF0YQAAAAAYYzJzaG5ZwPr0icbGhhkzup8efuIAAACAY2JvcqVjYWxnZnNoYTI1NmNwYWRNAAAAAAAAAAAAAAAAAGRoYXNoWCCF4mMCPcRfqPyvHv/JeqLlPmXveUxv6sxyLqGekG/v3GRuYW1lbmp1bWJmIG1hbmlmZXN0amV4Y2x1c2lvbnOBomVzdGFydBiYZmxlbmd0aBkeBAAAAj5qdW1iAAAAJ2p1bWRjMmNsABEAEIAAAKoAOJtxA2MycGEuY2xhaW0udjIAAAACD2Nib3KlY2FsZ2ZzaGEyNTZpc2lnbmF0dXJleE1zZWxmI2p1bWJmPS9jMnBhL3VybjpjMnBhOjYzNTgwNGFlLTIxYjAtNDgwNC04YzI1LTEyODMyMDlmN2YwMC9jMnBhLnNpZ25hdHVyZWppbnN0YW5jZUlEeCx4bXA6aWlkOmVjOTc3NjFhLWFiZGMtNGJiZS04ZWFiLTgxNGE0ODM1MzVkMnJjcmVhdGVkX2Fzc2VydGlvbnODomN1cmx4LXNlbGYjanVtYmY9YzJwYS5hc3NlcnRpb25zL2MycGEuaW5ncmVkaWVudC52M2RoYXNoWCCVqo43wpjlkMXd+XBE+uJeZ3PgvwX9dJ+wJQwkuk548aJjdXJseCpzZWxmI2p1bWJmPWMycGEuYXNzZXJ0aW9ucy9jMnBhLmFjdGlvbnMudjJkaGFzaFgg57H3XcLm71KGLKqj7o328b1J/I+Wh/e8l46WsGpUYwWiY3VybHgpc2VsZiNqdW1iZj1jMnBhLmFzc2VydGlvbnMvYzJwYS5oYXNoLmRhdGFkaGFzaFggrf9aY4XgBql2DX4VIcz2kWUzJML/CUYDY/9SCWmjuLx0Y2xhaW1fZ2VuZXJhdG9yX2luZm+jZG5hbWVvQW50aHJvcGljIEZpbGVzZ3ZlcnNpb25lMS4wLjBrc3BlY1ZlcnNpb25lMi40LjAAABA4anVtYgAAAChqdW1kYzJjcwARABCAAACqADibcQNjMnBhLnNpZ25hdHVyZQAAABAIY2JvctKEWQISogEmGCFZAgowggIGMIIBjaADAgECAhRA5aAK7sI50L64g/oGQgU9Z1UTADAKBggqhkjOPQQDAzBJMRcwFQYDVQQKEw5BbnRocm9waWMsIFBCQzEuMCwGA1UEAxMlQW50aHJvcGljIENvbnRlbnQgQ3JlZGVudGlhbHMgUm9vdCBDQTAeFw0yNjA4MDcxODQzNTZaFw0yODA4MDYxOTQzNTZaMEQxFzAVBgNVBAoTDkFudGhyb3BpYywgUEJDMSkwJwYDVQQDEyBBbnRocm9waWMgQ2xhdWRlIENvbnRlbnQgU2lnbmluZzBZMBMGByqGSM49AgEGCCqGSM49AwEHA0IABJh6CmvLUBgFFNU0vUKlOVtE6djd17L5SuwX0LemFisBM3dkd/3cyjxFA3Qo5S46fX0/ihY0VZ7mfb9KF703t5OjWDBWMA4GA1UdDwEB/wQEAwIHgDAVBgNVHSUEDjAMBgorBgEEAYPoXgIBMAwGA1UdEwEB/wQCMAAwHwYDVR0jBBgwFoAUzlHiBIFOZFsj+OPEz5o+nMHXXMIwCgYIKoZIzj0EAwMDZwAwZAIwMXMdFJ4BetLLVY7ORuE9noqbbAZOZn/aArXyTwFAZfKrPzxF2vPoJNf1+UCdg1XGAjBwX1zd9WGqYkqmL5SFqw1QySjr1zJfpJM9+1rdDwSPLMOPOjKuiXjoU/pUUeG9RwmhY3BhZFkNngAAAAAAAAAAAAAAAAAAAAAAAAAAAAAAAAAAAAAAAAAAAAAAAAAAAAAAAAAAAAAAAAAAAAAAAAAAAAAAAAAAAAAAAAAAAAAAAAAAAAAAAAAAAAAAAAAAAAAAAAAAAAAAAAAAAAAAAAAAAAAAAAAAAAAAAAAAAAAAAAAAAAAAAAAAAAAAAAAAAAAAAAAAAAAAAAAAAAAAAAAAAAAAAAAAAAAAAAAAAAAAAAAAAAAAAAAAAAAAAAAAAAAAAAAAAAAAAAAAAAAAAAAAAAAAAAAAAAAAAAAAAAAAAAAAAAAAAAAAAAAAAAAAAAAAAAAAAAAAAAAAAAAAAAAAAAAAAAAAAAAAAAAAAAAAAAAAAAAAAAAAAAAAAAAAAAAAAAAAAAAAAAAAAAAAAAAAAAAAAAAAAAAAAAAAAAAAAAAAAAAAAAAAAAAAAAAAAAAAAAAAAAAAAAAAAAAAAAAAAAAAAAAAAAAAAAAAAAAAAAAAAAAAAAAAAAAAAAAAAAAAAAAAAAAAAAAAAAAAAAAAAAAAAAAAAAAAAAAAAAAAAAAAAAAAAAAAAAAAAAAAAAAAAAAAAAAAAAAAAAAAAAAAAAAAAAAAAAAAAAAAAAAAAAAAAAAAAAAAAAAAAAAAAAAAAAAAAAAAAAAAAAAAAAAAAAAAAAAAAAAAAAAAAAAAAAAAAAAAAAAAAAAAAAAAAAAAAAAAAAAAAAAAAAAAAAAAAAAAAAAAAAAAAAAAAAAAAAAAAAAAAAAAAAAAAAAAAAAAAAAAAAAAAAAAAAAAAAAAAAAAAAAAAAAAAAAAAAAAAAAAAAAAAAAAAAAAAAAAAAAAAAAAAAAAAAAAAAAAAAAAAAAAAAAAAAAAAAAAAAAAAAAAAAAAAAAAAAAAAAAAAAAAAAAAAAAAAAAAAAAAAAAAAAAAAAAAAAAAAAAAAAAAAAAAAAAAAAAAAAAAAAAAAAAAAAAAAAAAAAAAAAAAAAAAAAAAAAAAAAAAAAAAAAAAAAAAAAAAAAAAAAAAAAAAAAAAAAAAAAAAAAAAAAAAAAAAAAAAAAAAAAAAAAAAAAAAAAAAAAAAAAAAAAAAAAAAAAAAAAAAAAAAAAAAAAAAAAAAAAAAAAAAAAAAAAAAAAAAAAAAAAAAAAAAAAAAAAAAAAAAAAAAAAAAAAAAAAAAAAAAAAAAAAAAAAAAAAAAAAAAAAAAAAAAAAAAAAAAAAAAAAAAAAAAAAAAAAAAAAAAAAAAAAAAAAAAAAAAAAAAAAAAAAAAAAAAAAAAAAAAAAAAAAAAAAAAAAAAAAAAAAAAAAAAAAAAAAAAAAAAAAAAAAAAAAAAAAAAAAAAAAAAAAAAAAAAAAAAAAAAAAAAAAAAAAAAAAAAAAAAAAAAAAAAAAAAAAAAAAAAAAAAAAAAAAAAAAAAAAAAAAAAAAAAAAAAAAAAAAAAAAAAAAAAAAAAAAAAAAAAAAAAAAAAAAAAAAAAAAAAAAAAAAAAAAAAAAAAAAAAAAAAAAAAAAAAAAAAAAAAAAAAAAAAAAAAAAAAAAAAAAAAAAAAAAAAAAAAAAAAAAAAAAAAAAAAAAAAAAAAAAAAAAAAAAAAAAAAAAAAAAAAAAAAAAAAAAAAAAAAAAAAAAAAAAAAAAAAAAAAAAAAAAAAAAAAAAAAAAAAAAAAAAAAAAAAAAAAAAAAAAAAAAAAAAAAAAAAAAAAAAAAAAAAAAAAAAAAAAAAAAAAAAAAAAAAAAAAAAAAAAAAAAAAAAAAAAAAAAAAAAAAAAAAAAAAAAAAAAAAAAAAAAAAAAAAAAAAAAAAAAAAAAAAAAAAAAAAAAAAAAAAAAAAAAAAAAAAAAAAAAAAAAAAAAAAAAAAAAAAAAAAAAAAAAAAAAAAAAAAAAAAAAAAAAAAAAAAAAAAAAAAAAAAAAAAAAAAAAAAAAAAAAAAAAAAAAAAAAAAAAAAAAAAAAAAAAAAAAAAAAAAAAAAAAAAAAAAAAAAAAAAAAAAAAAAAAAAAAAAAAAAAAAAAAAAAAAAAAAAAAAAAAAAAAAAAAAAAAAAAAAAAAAAAAAAAAAAAAAAAAAAAAAAAAAAAAAAAAAAAAAAAAAAAAAAAAAAAAAAAAAAAAAAAAAAAAAAAAAAAAAAAAAAAAAAAAAAAAAAAAAAAAAAAAAAAAAAAAAAAAAAAAAAAAAAAAAAAAAAAAAAAAAAAAAAAAAAAAAAAAAAAAAAAAAAAAAAAAAAAAAAAAAAAAAAAAAAAAAAAAAAAAAAAAAAAAAAAAAAAAAAAAAAAAAAAAAAAAAAAAAAAAAAAAAAAAAAAAAAAAAAAAAAAAAAAAAAAAAAAAAAAAAAAAAAAAAAAAAAAAAAAAAAAAAAAAAAAAAAAAAAAAAAAAAAAAAAAAAAAAAAAAAAAAAAAAAAAAAAAAAAAAAAAAAAAAAAAAAAAAAAAAAAAAAAAAAAAAAAAAAAAAAAAAAAAAAAAAAAAAAAAAAAAAAAAAAAAAAAAAAAAAAAAAAAAAAAAAAAAAAAAAAAAAAAAAAAAAAAAAAAAAAAAAAAAAAAAAAAAAAAAAAAAAAAAAAAAAAAAAAAAAAAAAAAAAAAAAAAAAAAAAAAAAAAAAAAAAAAAAAAAAAAAAAAAAAAAAAAAAAAAAAAAAAAAAAAAAAAAAAAAAAAAAAAAAAAAAAAAAAAAAAAAAAAAAAAAAAAAAAAAAAAAAAAAAAAAAAAAAAAAAAAAAAAAAAAAAAAAAAAAAAAAAAAAAAAAAAAAAAAAAAAAAAAAAAAAAAAAAAAAAAAAAAAAAAAAAAAAAAAAAAAAAAAAAAAAAAAAAAAAAAAAAAAAAAAAAAAAAAAAAAAAAAAAAAAAAAAAAAAAAAAAAAAAAAAAAAAAAAAAAAAAAAAAAAAAAAAAAAAAAAAAAAAAAAAAAAAAAAAAAAAAAAAAAAAAAAAAAAAAAAAAAAAAAAAAAAAAAAAAAAAAAAAAAAAAAAAAAAAAAAAAAAAAAAAAAAAAAAAAAAAAAAAAAAAAAAAAAAAAAAAAAAAAAAAAAAAAAAAAAAAAAAAAAAAAAAAAAAAAAAAAAAAAAAAAAAAAAAAAAAAAAAAAAAAAAAAAAAAAAAAAAAAAAAAAAAAAAAAAAAAAAAAAAAAAAAAAAAAAAAAAAAAAAAAAAAAAAAAAAAAAAAAAAAAAAAAAAAAAAAAAAAAAAAAAAAAAAAAAAAAAAAAAAAAAAAAAAAAAAAAAAAAAAAAAAAAAAAAAAAAAAAAAAAAAAAAAAAAAAAAAAAAAAAAAAAAAAAAAAAAAAAAAAAAAAAAAAAAAAAAAAAAAAAAAAAAAAAAAAAAAAAAAAAAAAAAAAAAAAAAAAAAAAAAAAAAAAAAAAAAAAAAAAAAAAAAAAAAAAAAAAAAAAAAAAAAAAAAAAAAAAAAAAAAAAAAAAAAAAAAAAAAAAAAAAAAAAAAAAAAAAAAAAAAAAAAAAAAAAAAAAAAAAAAAAAAAAAAAAAAAAAAAAAAAAAAAAAAAAAAAAAAAAAAAAAAAAAAAAAAAAAAAAAAAAAAAAAAAAAAAAAAAAAAAAAAAAAAAAAAAAAAAAAAAAAAAAAAAAAAAAAAAAAAAAAAAAAAAAAAAAAAAAAAAAAAAAAAAAAAAAAAAAAAAAAAAAAAAAAAAAAAAAAAAAAAAAAAAAAAAAAAAAAAAAAAAAAAAAAAAAAAAAAAAAAAAAAAAAAAAAAAAAAAAAAAAAAAAAAAAAAAAAAAAAAAAAAAAAAAAAAAAAAAAAAAAAAAAAAAAAAAAAAAAAAAAAAAAAAAAAAAAAAAAAAAAAAAAAAAAAAAAAAAAAAAAAAAAAAAAAAAAAAAAAAAAAAAAAAAAAAAAAAAAAAAAAAAAAAAAAAAAAAAAAAAAAAAAAAAAAAAAAAAAAAAAAAAAAAAAAAAAAAAAAAAAAAAAAAAAAAAAAAAAAAAAAAAAAAAAAAAAAAAAAAAAAAAAAAAAAAAAAAAAAAAAAAAAAAAAAAAAAAAAAAAAAAAAAAAAAAAAAAAAAAAAAAAAAAAAAAAAAAAAAAAAAAAAAAAAAAAAAAAAAAAAAAAAAAAAAAAAAAAAAAAAAAAAAAAAAAAAAAAAAAAAAAAAAAAAAAAAAAAAAAAAAAAAAAAAAAAAAAAAAAAAAAAAAAAAAAAAAAAAAAAAAAAAAAAAAAAAAAAAAAAAAAAAAAAAAAAAAAAAAAAAAAAAAAAAAAAAAAAAAAAAAAAAAAAAAAAAAAAAAAAAAAAAAAAAAAAAAAAAAAAAAAAAAAAAAAAAAAAAAAAAAAAAAAAAAAAAAAAAAAAAAAAAAAAAAAAAAAAAAAAAAAAAAAAAAAAAAAAAAAAAAAAAAAAAAAAAAAAAAAAAAAAAAAAAAAAAAAAAAAAAAAAAAAAAAAAAAAAAAAAAAAAAAAAAAAAAAAAAAAAAAAAAAAAAAAAAAAAAAAAAAAAAAAAAAAAAAAAAAAAAAAAAAAAAAAAAAAAAAAAAAAAAAAAAAAAAAAAAAAAAAAAAAAAAAAAAAAAAAAAAAAAAAAAAAAAAAAAAAAAAAAAAAAAAAAAAAAAAAAAAAAAAAAAAAAAAAAAAAAAAAAAAAAAAAAAAAAAAAAAAAAAAAAAAAAAAAAAAAAAAAAAAAAAAAAAAAAAAAAAAAAAAAAAAAAAAAAAAAAAAAAAAAAAAAAAAAAAAAAAAAAAAPZYQA0WzUJJl4XNmO8W9yH2HAwIYjKXboJYyldFuCXlHf579hKNaiXcp4sV5Tz8KlGVx940M08rafeSn4EdsxFWh1s=</c2pa:manifest></metadata>
<style>
  .tattoo { font-family: 'JetBrains Mono', 'Courier New', monospace; font-weight: 700; }
  .mono   { font-family: 'JetBrains Mono', 'Courier New', monospace; }
</style>

<!-- Background -->
<rect width="1280" height="320" fill="#0d1a0e"/>

<!-- Subtle grid -->
<g stroke="#ffffff" stroke-opacity="0.018" stroke-width="0.5">
  <line x1="0" y1="80" x2="1280" y2="80"/>
  <line x1="0" y1="160" x2="1280" y2="160"/>
  <line x1="0" y1="240" x2="1280" y2="240"/>
  <line x1="320" y1="0" x2="320" y2="320"/>
  <line x1="640" y1="0" x2="640" y2="320"/>
  <line x1="960" y1="0" x2="960" y2="320"/>
</g>

<!-- ════════════════════════════
     CHAMELEON  (left, scaled ~0.72x of logo)
     centre: cx≈178 cy≈160
     ════════════════════════════ -->

<!-- Tail -->
<path d="M282 214 Q318 198 338 174 Q360 146 356 122 Q352 103 340 99 Q326 95 320 109 Q315 119 322 124 Q330 130 327 142 Q318 160 296 177 Q275 192 282 210 Z" fill="#4a8c3f"/>
<path d="M284 212 Q318 198 336 176 Q356 150 352 128 Q348 113 338 108 Q328 102 323 112 Q318 122 324 127 Q331 133 328 143 Q320 162 298 179 Q278 193 284 209 Z" fill="#5aad50"/>
<path d="M320 108 Q314 97 307 101 Q301 108 305 115 Q311 121 317 115 Q321 109 318 104" fill="#4a8c3f"/>

<!-- Body -->
<ellipse cx="192" cy="196" rx="104" ry="66" fill="#4a8c3f"/>
<ellipse cx="190" cy="190" rx="98" ry="58" fill="#5aad50"/>
<ellipse cx="190" cy="216" rx="82" ry="42" fill="#a8d5a2"/>

<!-- Hind legs -->
<path d="M114 228 Q98 256 94 278 Q92 289 100 290 Q108 291 111 281 Q113 269 117 257 Q122 240 126 231 Z" fill="#4a8c3f"/>
<ellipse cx="100" cy="291" rx="12" ry="6" fill="#3a7030" transform="rotate(-10 100 291)"/>
<path d="M254 234 Q261 260 266 278 Q269 289 261 291 Q253 293 250 282 Q246 269 243 254 Q240 237 241 229 Z" fill="#4a8c3f"/>
<ellipse cx="261" cy="292" rx="12" ry="6" fill="#3a7030" transform="rotate(8 261 292)"/>

<!-- Front legs -->
<path d="M126 218 Q110 242 105 263 Q102 273 110 275 Q118 276 120 265 Q124 251 128 236 Q133 222 133 217 Z" fill="#4a8c3f"/>
<ellipse cx="109" cy="276" rx="11" ry="6" fill="#3a7030" transform="rotate(-8 109 276)"/>
<path d="M242 210 Q249 234 252 253 Q254 264 246 266 Q238 267 236 256 Q232 242 230 224 Q229 211 232 206 Z" fill="#4a8c3f"/>
<ellipse cx="246" cy="267" rx="11" ry="6" fill="#3a7030" transform="rotate(6 246 267)"/>

<!-- Head -->
<ellipse cx="90" cy="162" rx="54" ry="41" fill="#4a8c3f"/>
<ellipse cx="87" cy="158" rx="48" ry="36" fill="#5aad50"/>
<!-- casque -->
<path d="M62 133 Q71 113 84 107 Q98 101 112 110 Q119 117 116 129 Q104 121 89 123 Q73 126 65 136 Z" fill="#3a7030"/>
<path d="M64 132 Q73 113 84 108 Q97 103 110 111 Q116 118 114 128 Q103 121 88 122 Q73 125 65 133 Z" fill="#4a8c3f"/>
<!-- snout -->
<path d="M44 163 Q33 167 31 174 Q28 182 35 186 Q44 189 56 179 Q64 171 59 162 Z" fill="#4a8c3f"/>
<path d="M45 165 Q36 168 33 175 Q31 182 37 185 Q45 187 55 178 Q62 171 57 164 Z" fill="#5aad50"/>
<path d="M31 175 Q39 172 50 175 Q58 179 60 182" fill="none" stroke="#2e6025" stroke-width="1.5" stroke-linecap="round"/>

<!-- Eye -->
<ellipse cx="78" cy="146" rx="16" ry="18" fill="#3a7030"/>
<circle cx="78" cy="144" r="13" fill="#f5f5dc"/>
<circle cx="80" cy="142" r="8" fill="#1a472a"/>
<circle cx="80" cy="142" r="5" fill="#0d2b18"/>
<circle cx="83" cy="139" r="2" fill="white"/>
<path d="M63 140 Q78 131 93 140" fill="none" stroke="#3a7030" stroke-width="2.5" stroke-linecap="round"/>

<!-- Dorsal spines -->
<g fill="#3a7030" stroke="#2e6025" stroke-width="0.5">
  <ellipse cx="134" cy="138" rx="4.5" ry="12" transform="rotate(-15 134 138)"/>
  <ellipse cx="153" cy="131" rx="4" ry="11" transform="rotate(-10 153 131)"/>
  <ellipse cx="173" cy="128" rx="4" ry="10" transform="rotate(-4 173 128)"/>
  <ellipse cx="194" cy="128" rx="3.5" ry="10" transform="rotate(3 194 128)"/>
  <ellipse cx="213" cy="132" rx="3.5" ry="9" transform="rotate(8 213 132)"/>
  <ellipse cx="231" cy="139" rx="3" ry="8" transform="rotate(13 231 139)"/>
  <ellipse cx="247" cy="149" rx="2.5" ry="7" transform="rotate(17 247 149)"/>
  <ellipse cx="260" cy="161" rx="2" ry="6" transform="rotate(22 260 161)"/>
</g>

<!-- Scale texture -->
<g fill="none" stroke="#3a7030" stroke-width="0.6" stroke-opacity="0.5">
  <circle cx="178" cy="182" r="10"/><circle cx="200" cy="180" r="10"/>
  <circle cx="222" cy="184" r="9"/><circle cx="188" cy="200" r="9"/>
  <circle cx="210" cy="198" r="9"/><circle cx="164" cy="188" r="8"/>
  <circle cx="234" cy="197" r="8"/><circle cx="200" cy="216" r="8"/>
  <circle cx="178" cy="214" r="8"/><circle cx="222" cy="213" r="7"/>
</g>

<!-- TATTOOS -->
<g transform="rotate(-8 183 172)">
  <rect x="151" y="156" width="65" height="25" rx="4" fill="#1a472a" fill-opacity="0.88"/>
  <text x="183" y="174" text-anchor="middle" class="tattoo" font-size="15" fill="#a8e6a3">3.14</text>
</g>
<g transform="rotate(4 194 198)">
  <rect x="160" y="184" width="68" height="24" rx="4" fill="#1a472a" fill-opacity="0.88"/>
  <text x="194" y="201" text-anchor="middle" class="tattoo" font-size="14" fill="#7ecef8">3.14f</text>
</g>
<g transform="rotate(-4 186 224)">
  <rect x="152" y="211" width="68" height="22" rx="4" fill="#1a472a" fill-opacity="0.88"/>
  <text x="186" y="227" text-anchor="middle" class="tattoo" font-size="14" fill="#ffcb6b">3.14L</text>
</g>

<!-- ════════════════════════════
     TEXT  (right of chameleon)
     ════════════════════════════ -->

<!-- WTF badge -->
<rect x="382" y="82" width="84" height="26" rx="5" fill="#3a0a0a" stroke="#cc3333" stroke-width="1"/>
<text x="424" y="100" text-anchor="middle" class="mono" font-size="13" font-weight="700" fill="#ff6b6b" letter-spacing="3">WTF</text>

<!-- Main title -->
<text x="382" y="158" class="mono" font-size="52" font-weight="700" fill="#a8d5a2" letter-spacing="-1">Weakly</text>
<text x="382" y="214" class="mono" font-size="52" font-weight="700" fill="#5aad50" letter-spacing="-1">Typed</text>
<text x="382" y="270" class="mono" font-size="52" font-weight="700" fill="#a8d5a2" letter-spacing="-1">Float</text>

<!-- Tagline -->
<text x="382" y="300" class="mono" font-size="15" font-weight="400" fill="#3a7030">Floating-point type-erasure</text>

<!-- Bottom accent line -->
<line x1="0" y1="317" x2="1280" y2="317" stroke="#3a7030" stroke-width="1" stroke-opacity="0.5"/>
</svg>
